<?xml version="1.0" standalone="no"?>
<!DOCTYPE svg PUBLIC "-//W3C//DTD SVG 1.1//EN" "http://www.w3.org/Graphics/SVG/1.1/DTD/svg11.dtd" >
<svg xmlns="http://www.w3.org/2000/svg">
<metadata>
This is a custom SVG webfont generated by Font Squirrel.
Copyright   : This font has been released into the public domain by its author Barry Schwartz This applies worldwideIn some countries this may not be legally possible if soBarry Schwartz grants anyone the right to use this work for any purpose without any conditions unless such conditions are required by law
Designer    : Barry Schwartz
Foundry     : The Crud Factory  La Rubejplenigejo
Foundry URL : httpcrudfactorycom
</metadata>
<defs>
<font id="webfontLqDKYAnt" horiz-adv-x="983" >
<font-face units-per-em="2048" ascent="1632" descent="-416" />
<missing-glyph horiz-adv-x="491" />
<glyph unicode=" "  horiz-adv-x="491" />
<glyph unicode="&#x09;" horiz-adv-x="491" />
<glyph unicode="&#xa0;" horiz-adv-x="491" />
<glyph unicode="!" horiz-adv-x="491" d="M115 172q0 25 35.5 78t70.5 53t81 -75.5t46 -104.5q0 -33 -50 -88t-85 -55q-29 0 -63.5 84.5t-34.5 107.5zM141 1520q145 20 209 34l25 -22q-76 -946 -111 -1131l-67 13l-11 172q-45 801 -45 934z" />
<glyph unicode="&#x22;" horiz-adv-x="753" d="M123 1620q29 12 94.5 12t93.5 -12l-53 -463h-82zM442 1620q29 12 94.5 12t94.5 -12l-53 -463h-82z" />
<glyph unicode="#" horiz-adv-x="997" d="M98 334l19 90h159l19 190h-158l19 91h155q25 190 25 268q16 8 78 14l63 6q-41 -121 -55 -284h196q25 190 25 268q16 8 76 12l59 4q-39 -133 -53 -280h190l-20 -95h-180l-25 -186h182l-18 -98h-162q-23 -100 -22 -303q-14 -8 -72 -15l-57 -8q23 117 41 324h-205 q-20 -90 -21 -299q-14 -8 -69 -17l-58 -6q29 172 39 324h-170zM387 426h199l24 190h-200z" />
<glyph unicode="$" d="M172 733q0 98 35 152q57 94 108.5 134t124.5 50v176h84v-170h6q88 0 168 -35q23 -8 34 -15t23.5 -28.5t12.5 -56.5q0 -6 -1 -31.5t-3 -70.5t-2 -99h-76q-2 27 -17.5 78t-33.5 78q-31 47 -111 57v-315q66 -23 105 -41t87 -53t71.5 -90.5t23.5 -128.5q0 -109 -31 -160 q-66 -104 -121 -140t-135 -51v-170h-84v162q-203 2 -247 74q-16 27 -17 70q0 166 9.5 203.5t45.5 37.5q31 0 39.5 -28.5t15.5 -78.5t29 -81q35 -53 125 -64v344q-61 20 -99 39t-82 51.5t-65.5 82.5t-21.5 118zM309 819q0 -55 34 -89t97 -62v284q-53 -8 -84.5 -35.5t-39 -51 t-7.5 -46.5zM524 98q154 20 154 152q0 63 -40 100t-114 64v-316z" />
<glyph unicode="%" horiz-adv-x="1427" d="M86 756q0 168 100 245q41 33 90.5 52.5t77.5 19.5q133 0 201 -95t68 -226q0 -70 -25 -131q-12 -27 -37.5 -63t-87 -76t-129.5 -40q-121 0 -189.5 87.5t-68.5 226.5zM190 758q0 -88 55.5 -141.5t116.5 -53.5q88 0 121 42t33 147q0 90 -52 145t-118 55q-33 0 -53.5 -4 t-47 -20.5t-41 -59t-14.5 -110.5zM307 -6l723 1106l76 -49l-723 -1106zM803 289q0 164 100 246q41 33 90 52t78 19q133 0 201.5 -96t68.5 -225q0 -70 -26 -131q-12 -27 -38 -63t-87.5 -76t-128.5 -40q-121 0 -189.5 87.5t-68.5 226.5zM907 291q0 -88 55.5 -141.5 t116.5 -53.5q88 0 121 41t33 148q0 90 -52.5 144t-117.5 54q-33 0 -52.5 -4t-47 -20.5t-42 -58t-14.5 -109.5z" />
<glyph unicode="&#x26;" horiz-adv-x="1597" d="M92 397q0 188 135 308q104 94 242 176q-178 219 -178 383q0 117 107.5 211t260.5 94q158 0 219.5 -28t61.5 -85q0 -102 -76 -260l-69 16q10 61 10 84q0 152 -164 152q-72 0 -122 -44t-50 -122q0 -115 172 -342t457 -485q111 205 110 391q0 74 -32.5 99.5t-118.5 31.5v67 q78 -6 221 -6t221 6v-67q-92 -6 -132 -47t-49 -99.5t-46 -185.5t-105 -254q188 -164 410 -323v-68q-168 0 -272 -8l-236 248q-76 -98 -178 -168l-66 -45q-55 -39 -104 -51.5t-174 -12.5q-119 0 -172 17.5t-137 97.5q-146 139 -146 319zM295 453q0 -135 100.5 -233.5 t237.5 -98.5q207 0 368 190l-471 500q-235 -149 -235 -358z" />
<glyph unicode="'" horiz-adv-x="434" d="M123 1620q29 12 94.5 12t93.5 -12l-53 -463h-82z" />
<glyph unicode="(" horiz-adv-x="675" d="M205 606q0 178 37 360.5t80 288.5q29 70 83 145t102 124t87 84l37 34l45 -45q-111 -164 -215 -397q-61 -125 -62 -594q0 -467 62 -594q121 -254 215 -395l-45 -45l-13 10q-10 8 -25 23l-39 38l-48 49q-25 26 -51.5 57.5t-50 64t-46 70.5t-36.5 75q-43 104 -80 288.5 t-37 358.5z" />
<glyph unicode=")" horiz-adv-x="675" d="M0 -383q94 141 215 395q61 127 61 594q0 469 -61 594q-104 233 -215 397l45 45l37 -34q39 -35 87 -84t102.5 -124t82.5 -145q43 -106 80 -288.5t37 -360.5q0 -174 -37 -358.5t-80 -288.5q-14 -37 -36.5 -75t-46 -70.5t-50 -64.5t-51.5 -57l-48 -49l-39 -38 q-15 -14 -26 -23l-12 -10z" />
<glyph unicode="*" horiz-adv-x="1064" d="M102 1135l45 161l29 17l328 -158l-78 379l168 4l24 -20l-47 -361l334 193l58 -160l-13 -31l-358 -63l287 -260l-134 -105l-32 4l-172 320l-160 -353l-139 95l-6 32l249 263z" />
<glyph unicode="+" d="M23 512l28 135h375v379l115 27l22 -25l-2 -381h381l25 -22l-27 -113h-377l-2 -375l-135 -28v403h-403z" />
<glyph unicode="," horiz-adv-x="491" d="M129 180q0 8 40 65.5t62 57.5q33 0 82 -78t49 -127q0 -74 -80.5 -202.5t-111.5 -128.5q-4 0 -17.5 11t-13.5 21q0 2 41 64.5t41 116.5q0 45 -46 112.5t-46 87.5z" />
<glyph unicode="-" horiz-adv-x="552" d="M35 512l28 135h433l22 -22l-24 -113h-459z" />
<glyph unicode="." horiz-adv-x="491" d="M129 172q0 25 36 78t70.5 53t80.5 -75.5t46 -104.5q0 -33 -50 -88t-85 -55q-29 0 -63.5 84.5t-34.5 107.5z" />
<glyph unicode="/" d="M-41 -287l940 1919h125l-936 -1919h-129z" />
<glyph unicode="0" d="M61 516q0 293 160 434q66 57 144.5 91t123.5 34q111 0 197 -50t136 -133t75 -180.5t25 -203.5q0 -115 -41 -229q-10 -29 -39 -75t-78 -103.5t-127 -97.5t-162 -40q-195 0 -304.5 153.5t-109.5 399.5zM199 520q0 -170 97 -274.5t210 -104.5q156 0 214 81t58 286 q0 176 -93 283.5t-210 107.5q-45 0 -72.5 -3t-70.5 -23.5t-68.5 -57.5t-45 -113t-19.5 -182z" />
<glyph unicode="1" d="M123 799q479 258 571 276l25 -22q-25 -369 -25 -637q0 -121 2 -187q2 -47 5.5 -66.5t15.5 -43t43 -31.5t80 -15t131 -10v-63h-783v63h52q274 4 280 93q10 72 10 272q0 63 -12 410q-117 0 -366 -101z" />
<glyph unicode="2" d="M20 59l72 60l234 182q168 131 250.5 226.5t82.5 191.5q0 205 -225 205q-59 0 -109.5 -14.5t-170.5 -69.5l-29 59l250 168q47 12 110 12q150 0 265.5 -72.5t115.5 -234.5q0 -90 -65.5 -187.5t-140 -161t-181.5 -136.5l-106 -72q-55 -37 -82 -59q152 -4 205 -4 q231 0 411 18l25 -23q-8 -70 -8 -147h-875z" />
<glyph unicode="3" d="M41 -322l10 17q41 -6 78 -6q197 0 360.5 132t163.5 285q0 244 -350 244q-6 0 -21.5 -1t-23.5 -1l-14 90q125 20 211 59.5t120.5 85.5t46 77.5t11.5 62.5q0 55 -27.5 99t-65.5 65.5t-68 33t-40 11.5q-92 0 -289 -111l-32 58l225 180q59 16 113 16q141 0 254.5 -83 t113.5 -216q0 -209 -276 -336q127 -2 215 -90t88 -194q0 -213 -212 -392.5t-544 -179.5z" />
<glyph unicode="4" d="M-6 94l145 279q113 199 244 406.5t186 275.5q16 6 77 14t95 8l15 -16v-903q66 0 219 10q8 -6 16 -14q-6 -55 -37 -154h-45q-98 0 -153 -4l12 -389q-84 -4 -180 -31l-27 -10l8 428q-426 0 -526 6zM168 182l25 -22q92 -8 202 -8q131 0 176 2q8 281 9 538v189 q-80 -88 -227.5 -333t-184.5 -366z" />
<glyph unicode="5" d="M45 -322l10 17q39 -6 78 -6q199 0 349.5 116.5t150.5 268.5q0 104 -21.5 168.5t-72 92t-97.5 35t-131 7.5h-114l-43 37l94 602l28 28q53 -4 168 -4q147 0 355 9l24 -23q-12 -57 -12 -160q-315 4 -317 4q-45 0 -168 -4q-37 -166 -45 -317q57 6 149 6q162 0 285 -93 t123 -274q0 -279 -213 -441.5t-533 -162.5z" />
<glyph unicode="6" d="M51 551q0 557 389 850q147 111 330 170l39 -64q-70 -27 -205 -114l-35 -23q-111 -76 -208 -247t-105 -345q49 76 119.5 115t208.5 39q156 0 255 -96.5t99 -313.5q0 -137 -35 -242.5t-84 -164t-115.5 -94t-119 -46t-103.5 -10.5q-430 0 -430 586zM246 635q0 -20 1 -51 t1 -39l2 -37q4 -92 15 -156.5t39 -134.5t85 -106.5t141 -36.5q117 0 176.5 117.5t59.5 273.5t-42 228.5t-144 103.5q-41 14 -99 14q-70 0 -119 -20.5t-68.5 -40t-45.5 -58.5q0 -8 -1 -27.5t-1 -29.5z" />
<glyph unicode="7" d="M82 688q10 170 10 227q0 63 -2 101l29 28q78 -4 452 -4q250 0 373 4l25 -22q-12 -188 -286.5 -706.5t-459.5 -749.5q-37 14 -82 49q260 401 394.5 688t212.5 547l-25 22l-492 2q-23 -12 -90 -186h-59z" />
<glyph unicode="8" d="M43 397q0 145 62.5 244.5t209.5 183.5q-102 57 -163.5 168t-61.5 187q0 176 114.5 292.5t289.5 116.5q195 0 305 -92t110 -229q0 -100 -66.5 -202.5t-193.5 -182.5l70 -35q106 -57 162.5 -167t56.5 -239q0 -193 -120 -335t-333 -142q-201 0 -321.5 117.5t-120.5 314.5z M203 387q0 -121 97 -216t192 -95q131 0 201.5 96t70.5 225q0 119 -61.5 187.5t-172.5 126.5l-81 43q-131 -78 -188.5 -165t-57.5 -202zM274 1284q0 -98 71 -190.5t185 -145.5q104 47 162 121t58 162q0 119 -66 186.5t-180 67.5q-106 0 -168 -54.5t-62 -146.5z" />
<glyph unicode="9" d="M72 561q0 147 40 253t110.5 160t150.5 77.5t178 23.5q106 0 184 -47t117 -125t56.5 -158.5t17.5 -169.5q0 -182 -31 -331.5t-80 -249.5t-120.5 -176t-143.5 -119t-159 -70.5t-155.5 -36t-144.5 -10.5l-12 70q272 39 418.5 156.5t197.5 369.5q-125 -76 -247 -76 q-164 0 -270.5 128t-106.5 331zM248 616q0 -90 11 -155.5t40 -127t88 -93t148 -31.5q113 0 176 53q18 133 18 303q0 51 -7 101.5t-28.5 125t-77 119.5t-139.5 45q-96 0 -162.5 -87t-66.5 -253z" />
<glyph unicode=":" horiz-adv-x="491" d="M129 172q0 25 36 78t70.5 53t80.5 -75.5t46 -104.5q0 -33 -50 -88t-85 -55q-29 0 -63.5 84.5t-34.5 107.5zM129 874q0 25 36 78.5t70.5 53.5t80.5 -76t46 -105q0 -33 -50 -88t-85 -55q-29 0 -63.5 84.5t-34.5 107.5z" />
<glyph unicode=";" horiz-adv-x="491" d="M129 180q0 8 40 65.5t62 57.5q33 0 82 -78t49 -127q0 -74 -80.5 -202.5t-111.5 -128.5q-4 0 -17.5 11t-13.5 21q0 2 41 64.5t41 116.5q0 45 -46 112.5t-46 87.5zM129 874q0 25 36 78.5t70.5 53.5t80.5 -76t46 -105q0 -33 -50 -88t-85 -55q-29 0 -63.5 84.5t-34.5 107.5z " />
<glyph unicode="&#x3c;" d="M-6 506l29 143l942 420l24 -22l-24 -125l-787 -351l787 -350l24 -125l-24 -22z" />
<glyph unicode="=" d="M8 352l29 135h913l25 -22l-29 -113h-938zM8 672l29 135h913l25 -23l-29 -112h-938z" />
<glyph unicode="&#x3e;" d="M-6 96l24 125l787 350l-787 351l-24 125l24 22l971 -432l-28 -143l-943 -420z" />
<glyph unicode="?" horiz-adv-x="911" d="M115 172q0 25 35.5 78t70.5 53t81 -75.5t46 -104.5q0 -33 -50 -88t-85 -55q-29 0 -63.5 84.5t-34.5 107.5zM143 1364q0 72 47.5 98.5t200.5 26.5q90 0 171 -38t128 -87t74 -86t29 -49q27 -133 26 -236q0 -403 -356 -403q-90 0 -170 55q-23 -211 -29 -244l-67 13l-23 426 q125 -106 221 -107q143 0 203.5 69.5t60.5 207.5q0 66 -18 190q-14 90 -54 126t-120 36q-66 0 -112 -9.5t-71.5 -19.5t-42 -33.5t-20.5 -38t-9 -45t-9 -42.5h-51q-9 163 -9 190z" />
<glyph unicode="@" horiz-adv-x="1884" d="M41 487q0 197 60.5 368t162 292t234.5 207t278.5 128t294.5 42q154 0 291 -46t244.5 -136.5t171 -233.5t63.5 -326q0 -156 -83 -347t-203.5 -325.5t-219.5 -134.5q-135 0 -166 230q-88 -84 -197.5 -158t-164.5 -74q-18 0 -47 9.5t-70 40t-74.5 76.5t-58.5 129t-25 188 q0 129 51.5 254t126 210t157.5 137t147 52q100 0 252 -57l71 63l45 -18q-27 -70 -44 -377t-17 -422q0 -158 59 -158q47 0 114 97.5t117 257t50 311.5q0 156 -57.5 279.5t-152.5 199.5t-212 115t-242 39q-139 0 -256.5 -45t-199.5 -122t-144.5 -172t-98.5 -202.5t-53.5 -207 t-17.5 -189.5q0 -156 46 -293t139.5 -247.5t251 -175t362.5 -64.5q131 0 340 47l16 -60q-70 -27 -200.5 -55.5t-212.5 -28.5q-225 0 -406.5 76t-293 203t-170 287.5t-58.5 336.5zM680 461q0 -104 66.5 -213t127.5 -109q74 0 156 50.5t146 129.5q27 313 26 480 q-141 141 -262 141q-119 0 -189.5 -133t-70.5 -346z" />
<glyph unicode="A" horiz-adv-x="1546" d="M0 0v74q68 6 100.5 29.5t69.5 90t104 236.5l426 1065q14 10 66.5 18.5t73.5 8.5l538 -1325q20 -37 36 -56.5t50.5 -40t81.5 -26.5v-74h-585v70q182 14 182 90q0 55 -43 153l-39 90q-25 55 -43 107h-592q-37 -84 -82 -202t-45 -138q0 -74 184 -90v-80h-483zM455 598h536 l-272 674z" />
<glyph unicode="B" horiz-adv-x="1329" d="M59 0v76q61 4 95 10t62 26.5t28 57.5q0 709 -15 1184q-2 45 -31.5 60.5t-109.5 19.5l-29 2v75q111 -8 283 -8q184 0 288.5 10.5t125.5 10.5h41q106 0 187 -27t125 -63.5t70.5 -88t35 -91.5t8.5 -80q0 -127 -57.5 -204t-170.5 -132l-61 -31q342 -115 342 -371 q0 -182 -149.5 -315t-340.5 -133h-43q-59 0 -161 8l-66 4q-111 8 -174 8q-172 0 -283 -8zM444 287q0 -115 70 -143.5t301 -28.5q86 0 165 86t79 233q0 150 -96.5 230.5t-251.5 80.5q-186 0 -262 -12q-5 -233 -5 -446zM449 831q133 12 256 13q37 0 86 -4q111 33 159.5 112.5 t48.5 173.5q0 84 -30.5 146.5t-72.5 92.5t-75 44t-49 14q-225 0 -291 -24l-24 -23q-6 -289 -8 -545z" />
<glyph unicode="C" horiz-adv-x="1382" d="M86 750q0 254 72 421q43 100 176 216t307 139q104 14 240 14q264 0 372 -59l23 -23q0 -102 -19 -360h-71q-8 29 -38 125t-30 98q-12 39 -33 53q-150 39 -305 39q-293 0 -391 -144.5t-98 -527.5q0 -428 272 -594q117 -70 258 -69q164 0 301 104q20 37 60 183l28 110h76 q-8 -84 -8 -407q-276 -102 -508 -103q-154 0 -272.5 39t-214 126t-146.5 244t-51 376z" />
<glyph unicode="D" horiz-adv-x="1589" d="M59 0v76q61 4 95 10t62 26.5t28 57.5q0 709 -15 1184q-2 45 -31.5 60.5t-109.5 19.5l-29 2v75q111 -8 285 -8q193 0 313.5 10.5t163.5 10.5h43q334 0 487.5 -164t153.5 -522q0 -184 -44 -334t-114.5 -244t-163.5 -157.5t-184.5 -89t-183.5 -25.5h-43q-51 0 -202.5 10 t-225.5 10q-174 0 -285 -8zM442 287q0 -102 81 -137t325 -35q150 0 221.5 54t142.5 183q82 145 82 420q0 336 -132 492.5t-417 156.5q-197 0 -264 -22l-22 -23q-17 -434 -17 -1089z" />
<glyph unicode="E" horiz-adv-x="1310" d="M59 0v76q61 4 95 10t62 26.5t28 57.5q8 262 8 676q0 309 -8 508q-2 45 -32 60.5t-108 19.5l-28 2v75q111 -8 282 -8q164 0 256 6l539 2l25 -22q-4 -16 -29 -186t-27 -193h-69q-39 209 -45 221q-12 39 -33 53q-23 6 -76 13q-49 6 -258 6q-92 0 -129 -13.5t-39 -56.5 q-4 -111 -8 -487q289 0 504 10l-21 -151h-35q-37 27 -132 38t-203.5 13t-114.5 2q-4 -303 -4 -588q0 -49 73.5 -64.5t268.5 -15.5q184 0 215 25q51 45 104 250l29 110h76q-6 -53 -12.5 -247.5t-6.5 -227.5h-1147z" />
<glyph unicode="F" horiz-adv-x="1155" d="M59 0v76q61 4 95 10t62 26.5t28 57.5l2 66q0 66 1 154.5t2 220.5t1 251q0 283 -6 492q-2 45 -32 60.5t-108 19.5l-30 2v75q115 -8 284 -8q160 0 256 6l488 2l24 -22q-4 -16 -28.5 -186t-26.5 -193h-70q-39 209 -45 221q-12 39 -32 53q-16 4 -76 13q-49 6 -207 6 q-94 0 -131 -13.5t-39 -56.5q-8 -451 -8 -487q291 0 506 10l-21 -151h-37q-37 27 -131 39t-202.5 13t-114.5 1q-6 -455 -6 -588q0 -37 26.5 -56.5t60.5 -26.5t97 -11l78 -6v-70h-660z" />
<glyph unicode="G" horiz-adv-x="1550" d="M86 750q0 254 72 421q43 100 176 216t307 139q104 14 240 14q121 0 266 -17.5t188 -41.5l25 -23q0 -102 -19 -360h-71q-55 188 -74 235q-41 27 -159.5 53.5t-254.5 26.5q-293 0 -392 -143.5t-99 -528.5q0 -643 586 -643q207 0 301 88v285q0 25 -13.5 40t-41 23.5 t-50 12.5t-63.5 6l-52 4l-2 70q111 -8 320 -9q137 0 248 9v-76l-29 -2q-70 -4 -97.5 -18.5t-27.5 -45.5v-381l-22 -22q-330 -117 -578 -117q-154 0 -272.5 39t-214 126t-146.5 244t-51 376z" />
<glyph unicode="H" horiz-adv-x="1738" d="M59 0v76q61 4 95 10t62 26.5t28 57.5q0 709 -15 1184q-2 45 -31.5 60.5t-109.5 19.5l-29 2v75h568v-75l-29 -2q-80 -4 -109.5 -19.5t-31.5 -60.5q-6 -362 -8 -508h841q-2 248 -10 508q-2 45 -31.5 60.5t-109.5 19.5l-29 2v75h567v-75l-28 -2q-80 -4 -110 -19.5t-32 -60.5 q-14 -410 -14 -1184q0 -37 26.5 -56.5t60.5 -26.5t97 -11v-76h-567v76q61 4 95 10t61.5 26.5t27.5 57.5q0 283 -4 588h-844q0 -152 -2 -365t-2 -223q0 -37 27 -56.5t60.5 -26.5t97.5 -11v-76h-568z" />
<glyph unicode="I" horiz-adv-x="686" d="M59 0v76q61 4 95 10t62 26.5t28 57.5q0 709 -15 1184q-2 45 -31.5 60.5t-109.5 19.5l-29 2v75h568v-75l-29 -2q-80 -4 -109.5 -19.5t-31.5 -60.5q-14 -410 -15 -1184q0 -37 27 -56.5t60.5 -26.5t97.5 -11v-76h-568z" />
<glyph unicode="J" horiz-adv-x="638" d="M0 -332l55 43q98 88 127 182.5t29 294.5q0 1036 -12 1166q-2 47 -32 61.5t-108 18.5l-28 2v75h567v-75l-31 -2q-53 -4 -79.5 -9.5t-43 -22t-16.5 -48.5q-14 -1239 -33 -1338q-37 -231 -264 -364l-90 -49z" />
<glyph unicode="K" horiz-adv-x="1372" d="M66 1436v75h380l25 -22q-12 -258 -12 -647q61 2 191 138t229.5 271t99.5 150q0 16 -23.5 23.5t-97.5 11.5v75h475v-75q-86 -6 -113.5 -17.5t-80.5 -56.5q-102 -90 -328 -346l-131 -152l225 -309q227 -309 340 -432l127 -49v-74q-199 0 -311 -8l-537 749q-10 14 -30 15 h-35q0 -139 1 -358.5t1 -227.5q0 -37 26.5 -56.5t60.5 -26.5t97 -11v-76h-567v76q61 4 95 10t61.5 26.5t27.5 57.5q0 35 -10 524.5t-16 659.5q-2 45 -32 60.5t-108 19.5z" />
<glyph unicode="L" horiz-adv-x="1142" d="M59 0v76q66 4 100 11t59.5 26.5t25.5 56.5q0 723 -15 1184q-2 47 -31.5 61.5t-109.5 18.5l-29 2v75h594v-75l-28 -2q-57 -4 -88 -9.5t-55.5 -23t-24.5 -47.5q-14 -410 -15 -1184q0 -80 201 -80h43q219 0 248 25q51 45 104 250l29 110h76q-6 -53 -12.5 -247.5t-6.5 -227.5 h-1065z" />
<glyph unicode="M" horiz-adv-x="1951" d="M4 1436v75h467l18 -55l459 -1139q250 543 465 1139l19 55h466v-75q-57 -2 -86.5 -5.5t-66.5 -10.5t-52.5 -21.5t-15.5 -36.5q0 -6 39 -1124l2 -58q6 -63 38 -80.5t128 -23.5v-76h-567v76q61 4 95 10t61.5 26.5t27.5 57.5q-6 395 -45 1053q-285 -625 -514 -1223h-80 l-524 1231q-31 -528 -31 -1061q0 -74 182 -90v-80h-483v74q92 10 127 54t43 142q29 444 39 770l10 324q0 39 -54 52.5t-167 19.5z" />
<glyph unicode="N" horiz-adv-x="1591" d="M31 1436v75h387q25 -72 878 -1185q-8 115 -8 630q0 72 -8 342q-2 72 -30.5 97.5t-153.5 38.5v77h495v-73q-137 -12 -166 -56l-12 -63q-14 -498 -14 -983l4 -336h-121q-66 100 -198 269l-748 954v-629l4 -201q6 -203 6 -223q0 -45 46 -63.5t130 -26.5v-80h-483v74 q160 14 170 90q14 102 14 758v65v118q0 69 -1 123t-1 95v43q-8 51 -88 59z" />
<glyph unicode="O" horiz-adv-x="1525" d="M86 733q0 317 131 516q70 104 196 175t224 92.5t172 21.5q319 0 476 -182t157 -514q0 -379 -146 -592q-98 -143 -267 -211t-294 -68q-326 0 -487.5 210t-161.5 552zM295 776q0 -41 2 -79t17.5 -126t43 -156.5t86 -144t140.5 -116.5q94 -47 245 -48q401 0 402 613 q0 346 -108.5 504.5t-276.5 183.5q-18 4 -111 4q-203 0 -321.5 -149.5t-118.5 -485.5z" />
<glyph unicode="P" horiz-adv-x="1304" d="M59 0v76q61 4 94 10t62 26.5t29 57.5q6 209 6 692q0 283 -6 492q-2 45 -32 60.5t-110 19.5l-28 2v75q115 -8 284 -8q184 0 288 10.5t124 10.5h41q121 0 208 -36t131 -98.5t63.5 -131t19.5 -150.5q0 -51 -19.5 -108.5t-63.5 -119t-105.5 -110.5t-156.5 -80t-208 -31 q-145 0 -219 33q-2 -147 -3 -330.5t-1 -191.5q0 -27 17.5 -45.5t56 -27.5t68.5 -13t83 -8l78 -6v-70h-701zM463 823q70 -61 235 -61q84 0 145.5 23.5t91.5 54t46 79t19.5 80t3.5 74.5q0 55 -3.5 90t-16.5 86t-48 90t-90 66q-41 18 -60 18q-219 0 -290 -24l-23 -23 q-6 -166 -10 -553z" />
<glyph unicode="Q" horiz-adv-x="1525" d="M86 733q0 317 131 516q70 104 196 175t224 92.5t172 21.5q319 0 476 -182t157 -514q0 -328 -99.5 -515.5t-295.5 -279.5q188 -207 292 -280q-59 -78 -92 -158l-28 -8l-320 395q-88 -25 -164 -25q-326 0 -487.5 210t-161.5 552zM295 776q0 -41 2 -79t17.5 -126t43 -156.5 t86 -144t140.5 -116.5q94 -47 245 -48q401 0 402 613q0 346 -108.5 504.5t-276.5 183.5q-18 4 -111 4q-203 0 -321.5 -149.5t-118.5 -485.5z" />
<glyph unicode="R" horiz-adv-x="1370" d="M66 0v76q61 4 95 10t61.5 26.5t27.5 57.5q0 709 -14 1184q-2 45 -32 60.5t-110 19.5l-28 2v75q115 -8 284 -8q168 0 281.5 10.5t130.5 10.5h41q137 0 238.5 -100.5t101.5 -264.5q0 -133 -57.5 -211t-192.5 -166l135 -256q135 -256 229 -403l113 -49v-74q-184 0 -297 -8 l-358 739h-58q-125 0 -202 27q-6 -432 -6 -588q0 -37 26.5 -56.5t60 -26.5t97.5 -11v-76h-567zM457 868q57 -35 215 -34q96 0 157.5 52t81 114.5t19.5 129.5q0 84 -25.5 146.5t-62.5 92.5t-64.5 44t-42.5 14q-188 0 -250 -26l-20 -23q-4 -90 -8 -510z" />
<glyph unicode="S" horiz-adv-x="1062" d="M117 1112q0 131 46 216t183 161q98 53 260 53q156 0 303 -78l25 -22q0 -102 -19 -361h-71q-8 29 -38 125.5t-30 98.5q-16 41 -33 53q-59 53 -198 53q-129 0 -196.5 -47t-67.5 -168q0 -49 14 -90t42 -68.5t51.5 -43t55.5 -33.5l312 -162q246 -127 245 -381 q0 -109 -26.5 -172.5t-106.5 -155.5q-111 -121 -350 -121q-190 0 -399 92q14 197 14 414h76l29 -110q29 -111 44 -143t54 -62q104 -45 231 -45q123 0 182.5 48t59.5 175q0 176 -188 276l-166 82q-121 63 -158 86t-61 47l-17 19q-102 110 -102 264z" />
<glyph unicode="T" horiz-adv-x="1245" d="M0 1489l23 22h1200l22 -22q-10 -174 -10 -404h-72q-53 193 -69 226q-8 25 -19 45q-14 14 -37 18q-106 20 -215 21q-35 0 -86 -11q-16 -387 -16 -1214q0 -37 38 -58.5t76.5 -27.5t106.5 -12v-72h-655v72q49 4 78.5 8t66.5 14t55.5 28.5t18.5 47.5q6 0 6 778q0 313 -4 436 q-51 10 -86 11q-109 0 -215 -21q-23 -4 -37 -18q-10 -20 -18 -45q-16 -33 -70 -226h-72q0 230 -10 404z" />
<glyph unicode="U" horiz-adv-x="1550" d="M70 1436v75h565v-75q-66 -4 -99.5 -11.5t-59 -27t-25.5 -56t1 -230t1 -312.5v-164q2 -113 2 -232q0 -47 20.5 -96t66.5 -99t136 -82t211 -32q100 0 167.5 23.5t109.5 65.5t63.5 125t29 176.5t7.5 244.5q0 84 -2 282.5t-2 329.5q0 74 -185 91v79h484v-73 q-158 -18 -164 -90l-2 -37q-4 -57 -12.5 -403.5t-8.5 -420.5q0 -133 -37 -229t-93 -150.5t-144 -86t-170 -41t-189 -9.5q-121 0 -215 37t-145 89.5t-85 121t-44 120.5t-10 99l-6 893q-8 63 -39 81t-127 24z" />
<glyph unicode="V" horiz-adv-x="1536" d="M0 1436v75h565v-75q-152 -12 -151 -72v-8q0 -35 165.5 -515.5t221.5 -592.5q102 229 262 640.5t160 448.5q0 47 -32 65.5t-138 29.5v79h483v-73q-82 -8 -120 -54.5t-113 -224.5l-482 -1159h-131l-530 1307q-27 66 -58.5 95.5t-101.5 33.5z" />
<glyph unicode="W" horiz-adv-x="2048" d="M0 1436v75h532v-75q-106 -8 -140 -21.5t-34 -58.5q0 -35 113 -480.5t147 -533.5q59 150 189.5 567.5t130.5 452.5q0 41 -35 54.5t-121 19.5v75h568v-75q-139 -8 -140 -68q0 -35 107.5 -441.5t177.5 -584.5q88 264 186.5 615.5t98.5 388.5q0 43 -38 60t-132 26v79h438v-73 q-49 -4 -73.5 -23.5t-41.5 -62.5l-405 -1352h-152q-35 168 -165 573.5t-197 591.5q-53 -141 -204 -605t-167 -560h-160q-10 84 -338 1221l-26 86q-14 63 -39 94t-80 35z" />
<glyph unicode="X" horiz-adv-x="1323" d="M0 0v74q53 6 147 94q72 68 433 573l-420 633q-39 55 -125 62v75h567v-75q-80 -6 -109.5 -17.5t-29.5 -36.5q0 -49 260 -473q119 162 206 298t87 165t-27.5 40t-128.5 20v79h459v-73q-88 -10 -195 -148l-348 -469l271 -448q125 -209 163.5 -251t112.5 -46v-76h-526v76 q154 12 153 59q0 12 -22 53l-295 465q-121 -162 -231.5 -325.5t-110.5 -186.5q0 -43 168 -61v-80h-459z" />
<glyph unicode="Y" horiz-adv-x="1329" d="M0 1436v75h565v-75q-100 -8 -135 -22.5t-35 -45.5q0 -47 310 -532q342 489 342 542q0 29 -32 38t-112 16v79h426v-73q-80 -10 -112 -52l-459 -634q-6 -135 -6 -447q0 -150 10 -168q29 -53 205 -65v-72h-635v72q66 6 104.5 12t74.5 27.5t36 58.5l-8 563q-47 84 -408 606 l-16 23q-16 23 -49 47.5t-66 26.5z" />
<glyph unicode="Z" horiz-adv-x="1353" d="M43 23l913 1374q-102 10 -215 10q-33 0 -360 -8q-31 -2 -56.5 -35t-33.5 -57q-16 -33 -70 -226h-69q-8 123 -9 408l25 22h1087l25 -22q-858 -1210 -934 -1366q117 -20 234 -21q438 0 467 27q55 45 104 236l20 75h82q-16 -246 -16 -440h-1169z" />
<glyph unicode="[" horiz-adv-x="604" d="M205 -395v2005l22 22q16 -4 140 -4q135 0 237 4v-67q-104 -2 -148 -14.5t-54.5 -33t-12.5 -73.5v-1675q2 -53 12.5 -74t54.5 -32t148 -13v-70q-154 6 -237 6q-41 0 -74 -1t-48.5 -2t-17.5 -1z" />
<glyph unicode="\" d="M-41 1632h125l940 -1919h-129z" />
<glyph unicode="]" horiz-adv-x="604" d="M0 -350q104 2 148.5 13t54.5 31.5t12 74.5v1675q-2 53 -12 73.5t-54.5 33t-148.5 14.5v67q102 -4 238 -4q123 0 139 4l22 -22v-2005l-22 -23q-2 0 -17.5 1t-48 2t-73.5 1q-84 0 -238 -6v70z" />
<glyph unicode="^" d="M-6 559l420 944l143 27l432 -971l-22 -24l-125 24l-350 787l-351 -787l-125 -24z" />
<glyph unicode="_" horiz-adv-x="1024" d="M0 -88l1024 2v-115h-1024v113z" />
<glyph unicode="`" horiz-adv-x="1024" d="M295 1464q2 37 39 64.5t80 27.5q195 -244 315 -368l-37 -43q-178 118 -397 319z" />
<glyph unicode="a" horiz-adv-x="978" d="M82 248q0 72 14.5 127t47 92t65.5 61.5t93 42t104.5 26.5l123.5 25l129 25q0 29 1.5 72t1.5 51q0 94 -68 135t-156 41q-102 0 -139 -48t-80 -206l-84 8l4 50q2 51 7.5 80.5t30 83t63.5 84t113.5 55t176.5 24.5q90 0 154 -20.5t95.5 -46t49 -69.5t19.5 -70.5t2 -67.5 q0 -156 -4 -333t-4 -208q0 -51 46 -123.5t46 -85.5q0 -10 -19 -16l-75 -25q-74 -23 -82 -22q-20 0 -38 29.5t-32 72.5t-16 45l-137 -92q-51 -35 -105.5 -50t-146.5 -15q-106 0 -153.5 77.5t-47.5 190.5zM266 268q0 -152 137 -151q121 0 244 102q14 12 15 174q0 113 -3 174 q-129 -45 -206.5 -67.5t-118.5 -52t-54.5 -66.5t-13.5 -113z" />
<glyph unicode="b" horiz-adv-x="1095" d="M20 1583q121 10 213 31l95 18q35 0 34 -30v-89l-8 -567q244 133 316 133q117 0 192.5 -34.5t113.5 -103.5t52 -147.5t14 -191.5q0 -276 -88 -409q-23 -31 -95.5 -96.5t-142 -96.5t-198.5 -31q-82 0 -192.5 36t-149.5 91q-2 252 -2 558.5t-1 450.5t-5 226q0 18 -2 49 q-4 102 -22.5 119t-118.5 17zM350 436q0 -215 21 -235q25 -31 104.5 -60.5t155.5 -29.5q80 0 124 25.5t70 113.5q16 55 25.5 174t9.5 162q0 104 -27.5 179t-72.5 109.5t-89 49t-91 14.5q-76 0 -228 -80v-135q-2 -123 -2 -287z" />
<glyph unicode="c" horiz-adv-x="903" d="M61 492q0 162 27 292q14 61 72 109q92 86 166.5 128t110.5 48t95 6q80 0 166 -16.5t113 -26.5q-6 -61 -6 -307h-62l-32 131q-10 37 -88 57.5t-174 20.5q-121 0 -163 -78t-42 -299q0 -100 10 -171t39 -132t86 -93t143 -32q61 0 131 36t109 73l41 36l43 -41 q-55 -57 -103.5 -115.5t-125 -102.5t-162.5 -44q-106 0 -222 62q-84 76 -143 213q-29 121 -29 246z" />
<glyph unicode="d" horiz-adv-x="1079" d="M61 496q0 113 12.5 196.5t27 129.5t44 83t45 49.5t50.5 32.5l69 41q88 53 205 53q94 0 217 -28q0 78 -2 179t-2 128q0 66 -1 91.5t-20.5 43.5t-39 19.5t-82.5 3.5l-4 67q121 10 215 29l94 20q35 0 35 -32q0 -440 -7.5 -845t-7.5 -493q0 -53 52.5 -131t52.5 -80 q0 -6 -17.5 -13t-44 -15.5t-30.5 -10.5q-80 -35 -97 -34q-20 0 -51 75.5t-39 83.5q-154 -170 -272 -170q-45 0 -107.5 28t-131 84t-116 165t-47.5 250zM242 573q0 -213 80.5 -320.5t199.5 -107.5q115 0 211 93q0 358 -3 508.5t-3 158.5q-96 57 -242 58q-61 0 -99 -11.5 t-75 -49.5t-53 -119t-16 -210z" />
<glyph unicode="e" horiz-adv-x="956" d="M61 504q0 207 45 313q33 76 158 165t234 89q100 0 173.5 -26.5t113.5 -70.5t67 -98.5t31 -108.5t9 -105q3 -28 3 -52q0 -19 -2 -35q-66 -41 -215 -40h-420q0 -66 2 -102t8 -92t23.5 -88t46.5 -64.5t76 -47t110 -14.5q178 0 326 145l45 -47q-41 -45 -89 -91t-94 -83 t-105.5 -59.5t-123.5 -22.5q-123 0 -210 48.5t-131 130t-62.5 169t-18.5 187.5zM262 627h117q272 0 323 37q0 43 -8 83.5t-28.5 87t-65.5 75t-111 28.5q-139 0 -183 -68.5t-44 -242.5z" />
<glyph unicode="f" horiz-adv-x="747" d="M61 918v69l183 31q0 248 118.5 432t342.5 184q100 0 132.5 -54t32.5 -177q0 -12 -1 -37t-1 -39l-88 -2q-43 233 -129 234q-74 0 -138 -158t-64 -338v-31h274l-6 -114h-268q-8 -430 -9 -719q0 -59 13.5 -79t63.5 -31t151 -26v-63h-574v70q74 10 92.5 13t43 19.5t26.5 37 t2 69.5q0 143 -12 709h-185z" />
<glyph unicode="g" horiz-adv-x="972" d="M20 -170q0 31 7.5 57.5t31 64.5t81 77t143.5 75q-162 23 -162 111q0 92 182 147q-104 47 -149 99.5t-64 150.5q-2 8 -2 39q0 111 35 189q31 63 153.5 148t264.5 85q123 0 221 -82q100 4 199 27l12 -12v-86h-162q16 -23 28.5 -90.5t12.5 -118.5q0 -86 -26.5 -147.5 t-92.5 -121.5q-106 -61 -258 -94q-168 -43 -168 -117q0 -29 24.5 -49t63.5 -20h244q135 0 186.5 -20.5t99.5 -82t48 -135.5q0 -55 -29 -111.5t-87 -109.5t-166.5 -87t-250.5 -34q-68 0 -134 11.5t-134 37t-110 77.5t-42 122zM197 -111q0 -94 90 -160.5t188 -66.5 q152 0 226.5 67.5t74.5 176.5q0 156 -239 155q-340 0 -340 -172zM276 664q0 -94 53.5 -153.5t154 -59.5t137 53t36.5 201q0 133 -41 180t-159 61q-10 2 -29 2q-76 0 -114 -62t-38 -222z" />
<glyph unicode="h" horiz-adv-x="1157" d="M45 1583q121 10 213 31l94 18q35 0 35 -30q0 -8 -1 -65.5t-1 -68.5l-2 -528q238 133 393 133q141 0 186.5 -97t45.5 -319q0 -55 -3.5 -200.5t-3.5 -233.5q0 -98 15.5 -121.5t89.5 -31.5v-70h-389v70q74 16 88 44.5t14 153.5v367q0 184 -27.5 236.5t-129.5 52.5 q-61 0 -148.5 -27t-130.5 -55q-6 0 -6 -594q0 -115 17.5 -144.5t99.5 -33.5v-70h-418v70q68 4 94.5 24.5t26.5 61.5q0 193 1 479.5t1 478.5v171q0 56 -7.5 110.5t-12.5 72t-27.5 33t-40.5 15.5h-62z" />
<glyph unicode="i" horiz-adv-x="577" d="M61 0v70q104 8 131 27.5t27 80.5v426q0 178 -9 248t-29.5 89.5t-78.5 19.5h-30l-4 67q121 10 215 29l92 20q35 0 35 -33q0 -25 -2 -134l-5.5 -310t-3.5 -446q0 -41 33 -60.5t105 -23.5v-70h-476zM182 1362q0 25 34 86t77 61q31 0 76 -37.5t45 -87t-42 -97.5t-79 -48 q-29 0 -70 50t-41 73z" />
<glyph unicode="j" horiz-adv-x="516" d="M-10 -379q12 16 35 43q55 68 76.5 105.5t44 95t27.5 179.5t8 264.5t3 445.5q0 135 -21.5 172t-94.5 37h-31l-4 67q121 10 213 31l94 18q35 0 35 -32v-316q0 -111 -4 -252t-6.5 -205.5t-15.5 -157.5t-21.5 -129t-33 -97.5t-43 -84l-60 -69.5t-73.5 -74l-93 -76zM143 1362 q0 25 35 86t78 61q31 0 76 -37.5t45 -87t-43 -97.5t-78 -48q-29 0 -71 50t-42 73z" />
<glyph unicode="k" horiz-adv-x="1177" d="M47 1583q121 10 213 31l92 18q37 0 37 -30v-13v-45v-31l-2 -909q70 0 197 133t127 203q0 35 -43 35q-18 0 -28.5 11t-10.5 26q0 31 39 32q72 -6 198 -6q125 0 195 6q37 0 37 -32q0 -12 -7.5 -21.5t-15.5 -12.5t-18 -6t-13 -3q-82 -33 -194.5 -120t-183.5 -159l-72 -72 l559 -557q25 -25 25 -41q0 -12 -13 -16l-12 -4q-156 0 -252 -8l-156 184l-108 128q-59 71 -80.5 92.5l-48.5 51t-39 33.5t-23.5 12.5t-30 13.5t-32.5 11q2 -29 2 -74q0 -66 -2 -146.5t-2 -98.5q0 -45 4 -65.5t17.5 -33t39 -16.5t66.5 -14v-70h-442v70q33 12 55 12t38.5 11 t26 19.5t14.5 36t6 58.5t1 90q0 203 2 465t2 328q0 113 -1 181t-11.5 119.5t-15.5 73t-31.5 34.5t-40 14t-60.5 4z" />
<glyph unicode="l" horiz-adv-x="581" d="M53 0v70q53 14 85 15t48.5 22.5t21.5 57.5t5 118v379q0 211 -6 673l-2 99q-2 51 -24.5 65t-90.5 14h-27l-4 68q121 14 213.5 33.5t94.5 19.5q35 0 34 -30q4 -168 5 -422q0 -250 -10.5 -536t-10.5 -451q0 -78 23.5 -95.5t128.5 -29.5v-70h-484z" />
<glyph unicode="m" horiz-adv-x="1708" d="M66 1010q82 8 167.5 38.5t108.5 30.5q27 0 37 -22.5t10 -85.5v-29l114 65q52 30 108.5 50t103.5 20q119 0 256 -145q199 145 342 145q84 0 140 -49t73.5 -99t17.5 -93q0 -145 -2 -321.5t-2 -213.5q0 -45 1 -76.5t3 -57.5t7 -41t11.5 -26.5t15.5 -15.5t21.5 -8t27.5 -4 t34 -2v-70h-418v70q78 4 97.5 31.5t19.5 125.5q0 27 -1 190t-1 312q0 59 -4 88t-20.5 58.5t-55.5 40t-104 10.5q-57 0 -205 -78q-2 -266 -2 -547q0 -90 4 -132t17 -63.5t36 -23.5t59 -12v-70h-417v70q76 4 93 31.5t17 117.5q0 238 1 397.5t1 180.5q0 66 -38 97.5t-144 31.5 q-41 0 -102.5 -24.5t-100.5 -51.5q-14 -467 -14 -555q0 -115 7 -154t32.5 -51t75.5 -20v-70h-418v70q68 4 93.5 24.5t25.5 61.5v318q0 118 -2.5 208l-3.5 127t-7 62.5t-8 28.5t-12 11q-14 12 -92 21z" />
<glyph unicode="n" horiz-adv-x="1153" d="M66 1010q84 8 168.5 38.5t107.5 30.5q29 0 39 -23.5t10 -84.5v-29q236 133 385 133q119 0 170 -72.5t51 -166.5v-684q0 -45 19.5 -61.5t89.5 -20.5v-70h-418v70q78 6 97.5 24.5t19.5 65.5v649q0 51 -32 78.5t-65.5 33t-82.5 5.5q-39 0 -113 -23.5t-115 -52.5 q-2 -137 -8 -337t-6 -259q0 -125 20.5 -152.5t100.5 -31.5v-70h-430v70q43 6 60.5 12t34.5 16.5t22.5 40t7.5 63.5t2 105q0 27 -6.5 288t-8.5 269q-6 25 -15 38t-23.5 18.5t-33 7.5t-42.5 4z" />
<glyph unicode="o" horiz-adv-x="1058" d="M61 532q0 180 84 318q55 86 192.5 156.5t227.5 70.5q182 0 311.5 -116.5t129.5 -358.5q0 -252 -91 -389q-121 -162 -235 -213q-78 -35 -186 -35q-59 0 -112.5 11.5t-114 48t-104.5 96t-73 165t-29 246.5zM256 549q0 -246 85 -342t247 -96q61 0 90 10q141 55 141 426 q0 174 -46 255t-159 116q-57 14 -110 14q-41 0 -62.5 -2t-56.5 -12.5t-53.5 -34t-39 -64.5t-28.5 -109.5t-8 -160.5z" />
<glyph unicode="p" horiz-adv-x="1134" d="M61 1028q121 10 213 29l95 20q37 0 37 -33q0 -2 -3.5 -52t-3.5 -62q16 8 81 51t128.5 69.5t128.5 26.5q20 0 50 -5t85.5 -32.5t98.5 -71.5t76.5 -136.5t33.5 -213.5q0 -295 -121.5 -462.5t-312.5 -167.5q-78 0 -133 16t-74.5 37.5t-36 43t-16.5 32.5q-2 -63 -5 -176 t-3 -142q2 -84 22.5 -107.5t100.5 -37.5v-70h-418v66q66 8 92.5 28.5t26.5 59.5q-2 193 -2 1112q0 74 -21.5 92.5t-113.5 18.5zM387 463q0 -215 44 -296t177 -81q113 0 195 115.5t82 355.5q0 362 -236 363q-104 0 -252 -76q0 -59 -5 -189.5t-5 -191.5z" />
<glyph unicode="q" horiz-adv-x="1103" d="M61 471q0 340 189 467q119 80 183.5 108.5t125.5 28.5q27 0 164 -22.5t311 -24.5v-70q-59 -25 -77.5 -48t-24.5 -95q-18 -213 -19 -872q0 -74 1 -115t6.5 -76t13.5 -46t21.5 -24.5t33 -14.5t45.5 -13v-70h-418v66q78 14 101.5 52t23.5 185q0 86 -6 234 q-197 -145 -332 -146q-168 0 -255 145.5t-87 350.5zM258 483q0 -188 69.5 -274t174.5 -86q100 0 188 63q45 33 45 125v512v33q-2 25 -27.5 42t-64.5 24.5t-67.5 10.5t-55.5 3q-262 0 -262 -453z" />
<glyph unicode="r" horiz-adv-x="815" d="M51 0v70q49 6 65.5 7t42 12t30 20.5t12.5 40t8 61.5v94v68v150q0 52 -2 119q-1 44 -2 72q0 7 0.5 16.5t0.5 15.5q0 26 -5 60q-6 40 -6 52t-11.5 32.5t-12.5 24t-20.5 10.5t-23.5 7t-31 2q-12 2 -20 2l-4 78q82 8 168 38.5t108 30.5q27 0 37 -23.5t10 -84.5l2 -78 q180 174 285 174q76 0 104.5 -18.5t28.5 -67.5q0 -16 -33 -221h-73q-10 154 -105 154q-53 0 -130 -48.5t-77 -128.5q0 -57 -1 -287.5t-1 -267.5q0 -29 8.5 -47t15.5 -28.5t46 -19.5t60.5 -13t99.5 -15v-63h-574z" />
<glyph unicode="s" horiz-adv-x="792" d="M92 733q0 98 35 152q74 119 139.5 154.5t194.5 35.5q76 0 157 -35q23 -8 34.5 -15t23.5 -28.5t12 -56.5q0 -6 -2 -31.5t-3 -70.5t-1 -99h-76q-2 27 -17.5 78t-33.5 78q-41 59 -154 59q-55 0 -92 -15t-52 -38.5t-21.5 -43t-6.5 -38.5q0 -55 37 -93t93.5 -56.5t121 -45 t120.5 -56t93 -92t37 -152.5q0 -109 -31 -160q-55 -88 -131 -148q-31 -23 -96 -37t-98 -14q-219 0 -262 74q-16 27 -17 70q0 166 9.5 203.5t46.5 37.5q31 0 39 -28.5t15 -78.5t30 -81q47 -66 170 -66q90 0 141 41t51 113q0 70 -52 110.5t-127 64.5t-148.5 51.5t-126 91 t-52.5 165.5z" />
<glyph unicode="t" horiz-adv-x="686" d="M20 918v61l179 35v188l92 28q37 11 47 15t13 5t5 1q31 0 31 -30q0 -8 -2 -49.5t-2 -75.5v-64h260l-6 -114h-254q0 -115 -3 -283t-3 -223q0 -158 19.5 -227.5t76.5 -69.5q49 0 150 59l43 -41q-158 -164 -258 -164q-133 0 -174 90.5t-41 325.5q0 59 3 236.5t3 296.5h-179z " />
<glyph unicode="u" horiz-adv-x="1138" d="M45 1020q106 12 197.5 33.5t93.5 21.5q37 0 37 -31q0 -123 -4 -334.5t-4 -263.5q0 -152 20 -208q14 -41 52 -68t71 -27q43 0 111.5 14.5t97.5 30.5q59 31 71.5 48.5t12.5 66.5q0 137 2 296t2 189q0 86 -7 121t-20.5 42t-50.5 7h-65l-5 68q121 12 213.5 30.5t94.5 18.5 q37 0 36 -31q0 -258 -8 -501.5t-8 -282.5q0 -51 46 -124t46 -85q0 -10 -18 -16l-76 -23q-74 -25 -82 -24q-20 0 -37.5 29.5t-32 72.5t-16.5 45q-123 -86 -225.5 -119.5t-153.5 -33.5q-74 0 -142.5 59t-90.5 147q-20 66 -21 254v195v135q0 47 -8 87l-11 54q-3 14 -25.5 24.5 t-35 11.5t-53.5 1z" />
<glyph unicode="v" horiz-adv-x="1007" d="M0 1026q109 14 200 35.5t93 21.5q35 0 35 -30q0 -41 106 -439l109 -399q217 573 217 698q0 31 -11.5 43.5t-25.5 12.5t-25.5 9t-11.5 32q0 37 70 37q18 0 48 -2.5t40 -2.5q35 0 78 4.5t57 4.5q29 0 29 -31q0 -8 -10.5 -25.5l-34 -54.5t-78 -154.5t-123.5 -291.5 q-43 -104 -81 -206l-55 -148l-34 -89q-16 -43 -29.5 -55t-28 -19.5t-40.5 -7.5q-41 0 -59.5 24.5t-44.5 106.5l-71 238q-18 59 -50 173l-51 180q-19 67 -47 135.5t-50 95.5q-20 23 -50 28.5t-67 7.5z" />
<glyph unicode="w" horiz-adv-x="1660" d="M0 1026q106 14 196.5 35.5t94.5 21.5q37 0 37 -30q0 -41 106 -439l109 -399q215 571 215 694q0 25 -16.5 60t-16.5 45q0 37 152 37q43 0 64.5 -8.5t22.5 -13.5l5 -25q25 -115 116 -451l91 -338q217 573 217 698q0 35 -11.5 48.5t-26 12.5t-25.5 6t-11 30q0 37 70 37 q18 0 47.5 -2.5t40.5 -2.5q35 0 88 4.5t67 4.5q29 0 29 -31q0 -8 -13 -26l-41 -54q-28 -37 -85.5 -154.5t-126.5 -291.5q-43 -104 -81 -206l-56 -148l-33 -89q-16 -43 -29.5 -55t-28 -19.5t-41.5 -7.5q-41 0 -59 24.5t-44 106.5l-71 238l-56 193l-48 171l-88 -208l-80 -205 l-55 -149q-16 -46 -34 -89t-30 -55t-27.5 -19.5t-41.5 -7.5q-39 0 -58.5 24.5t-45.5 106.5l-71 238q-43 162 -100 349t-98 235q-8 10 -16.5 16t-21.5 10t-20.5 5t-28 2t-28.5 3z" />
<glyph unicode="x" horiz-adv-x="927" d="M-10 0v70q33 2 47 8t37.5 22.5t65.5 76.5l92 134l157 234l-96 156l-70 114q-20 33 -44.5 69t-42 46t-39 18t-58.5 13l-4 67q72 8 141.5 28.5t85.5 20.5q41 0 86 -73.5t168 -305.5q158 221 158 240q0 25 -12.5 36t-25.5 11t-25.5 7t-12.5 26q0 6 3 12t14.5 14.5t29.5 8.5 q10 0 47 -2t70 -2q31 0 63.5 2t55.5 2q41 0 41 -43q0 -14 -10.5 -21.5t-25 -10.5t-39 -19.5t-44.5 -45.5q-86 -104 -221 -309q238 -371 292 -468t54 -132q0 -41 -35 -41q-63 0 -165.5 119t-270.5 377l-156 -240q-51 -82 -51 -108q0 -29 76 -41v-70h-336z" />
<glyph unicode="y" horiz-adv-x="1007" d="M0 1026q106 14 197.5 35.5t95.5 21.5q35 0 35 -30q0 -41 106 -439l109 -399q217 580 217 698q0 31 -11.5 43.5t-25.5 12.5t-25.5 9t-11.5 32q0 37 70 37q16 0 47 -2.5t41 -2.5q35 0 78 4.5t57 4.5q29 0 29 -31q0 -8 -10.5 -25.5l-34 -54.5t-78 -154.5t-125.5 -291.5 q-98 -244 -170 -440.5t-96.5 -277.5t-44 -136.5t-25.5 -60.5t-29 -5q-135 0 -135 59q0 33 73 149t73 179q0 76 -118 489.5t-167 471.5q-20 23 -50 28.5t-67 7.5z" />
<glyph unicode="z" horiz-adv-x="1056" d="M68 53l628 883q0 8 -209 8h-10h-95q-28 0 -63.5 -12t-47 -23.5t-30 -52.5t-26.5 -78l-27 -121h-77q2 72 5 142.5t3 103.5t2 67t3 44t7 19t11 9h20q8 0 87 -3t230 -3l436 8q59 0 60 -43q0 -39 -129 -194l-53 -66q-207 -258 -311.5 -429t-104.5 -197q0 -10 26 -11 q133 0 224.5 7.5t135.5 12.5t71.5 26.5t28.5 24.5t14 34q2 4 43 164l86 -6q-25 -225 -25 -396q0 -6 1 -17t1 -15l-90 6q0 45 -32 54t-171 9q-121 0 -600 -8z" />
<glyph unicode="{" horiz-adv-x="794" d="M102 578l13 65q131 33 213 59q23 33 25.5 228.5t17 394.5t63.5 248q143 35 342 67l19 -67q-113 -25 -213 -57q-25 -35 -31 -327t-25 -403q-10 -66 -87 -119t-124 -59q45 -4 123 -57t88 -119q18 -111 24.5 -402.5t31.5 -326.5q82 -29 213 -61l-19 -68q-256 45 -342 68 q-49 47 -64.5 249.5t-18.5 400t-23 226.5q-95 31 -226 60z" />
<glyph unicode="|" horiz-adv-x="491" d="M166 -416v2048h160v-2048h-160z" />
<glyph unicode="}" horiz-adv-x="794" d="M0 -358q131 33 213 61q25 35 31 327t24 402q10 66 88 119t123 57q-47 6 -123.5 59.5t-87.5 118.5q-18 111 -24 403t-31 327q-100 33 -213 57l18 67q199 -33 342 -67q49 -49 63.5 -248t17.5 -394.5t26 -228.5q115 -37 225 -61l-12 -66q-113 -25 -213 -57 q-20 -29 -23.5 -226.5t-18.5 -400t-65 -249.5q-86 -23 -342 -68z" />
<glyph unicode="~" d="M4 586q63 86 129 136t156 50q84 0 225 -64.5t191 -64.5q76 0 163 121l109 -68q-121 -188 -283 -188q-80 0 -221 64.5t-207 64.5q-63 0 -153 -121z" />
<glyph unicode="&#xa2;" d="M100 492q0 162 27 292q14 61 72 109q172 158 288 178v184h84v-180q80 0 166 -16.5t113 -26.5q-6 -61 -6 -307h-62l-32 131q-14 55 -179 74v-801q59 2 127 39t105 72l39 34l43 -41q-47 -49 -88 -98t-101.5 -94t-124.5 -61v-166h-84v157q-98 0 -215 62q-84 76 -143 213 q-29 121 -29 246zM283 557q0 -184 43 -290.5t161 -131.5v799q-121 0 -162.5 -78t-41.5 -299z" />
<glyph unicode="&#xa3;" horiz-adv-x="999" d="M51 68q57 12 84 32.5t51.5 116.5t28.5 287h-121v82h121q6 63 9 105t16.5 80t42.5 75q178 240 372 239q74 0 195 -47l-31 -247h-47q-20 86 -49 153q-66 45 -133 45q-66 0 -111 -51t-53 -156q-10 -94 -14 -196h350v-82h-356q-12 -260 -119 -381q121 -6 207 -6q160 0 264 18 l18 41l33 131h59q0 -225 9 -307q-406 6 -547 6q-164 0 -256 -6z" />
<glyph unicode="&#xa9;" horiz-adv-x="1589" d="M74 678q0 315 214 521t500 206q309 0 518.5 -210t209.5 -509q0 -309 -212 -516t-503 -207q-315 0 -521 214t-206 501zM174 680q0 -248 176 -432.5t451 -184.5q254 0 435 180.5t181 442.5q0 264 -186.5 442.5t-437.5 178.5q-250 0 -434.5 -177.5t-184.5 -449.5zM449 653 q0 135 20 238q12 43 18 49q90 88 158 131t99.5 49t84.5 6q133 0 226 -34q-4 -33 -4 -250h-52l-24 108q-8 29 -71.5 45.5t-141.5 16.5q-98 0 -132 -62.5t-34 -242.5q0 -121 18 -195q23 -61 66 -111q57 -47 123 -47q49 0 110.5 31t98.5 61l37 31l34 -33l-184 -200 q-90 -14 -106 -15q-113 0 -205 54q-70 61 -117 172q-22 104 -22 198z" />
<glyph unicode="&#xad;" horiz-adv-x="552" d="M35 512l28 135h433l22 -22l-24 -113h-459z" />
<glyph unicode="&#xae;" horiz-adv-x="1280" d="M102 1055q0 219 160 379.5t383 160.5q246 0 389.5 -155.5t143.5 -384.5q0 -221 -157 -381t-376 -160q-256 0 -399.5 155t-143.5 386zM199 1055q0 -199 123.5 -333t322.5 -134q190 0 317.5 138t127.5 329q0 193 -124 329t-321 136q-188 0 -317 -138.5t-129 -326.5z M367 762v37q80 4 79 37q0 297 -6 460q0 16 -13 22.5t-48 8.5l-12 2v37q25 -2 125 -2q74 0 123 4t57 4h18q59 0 104.5 -41t45.5 -106q0 -53 -26 -84t-85 -66l62 -102q59 -102 100 -162l49 -18v-31q-80 0 -131 -4l-158 297h-24q-59 0 -90 10q-2 -115 -2 -229q0 -33 81 -37v-37 q-25 2 -124.5 2t-124.5 -2zM539 1114q23 -14 94 -14q61 0 86.5 34.5t25.5 79.5q0 43 -20 70t-37.5 34t-28.5 7q-82 0 -108 -10l-10 -8q0 -14 -1 -81t-1 -112z" />
<glyph unicode="&#xb4;" horiz-adv-x="1024" d="M295 1186q121 125 315 368q43 0 80 -27.5t39 -64.5q-219 -201 -397 -319z" />
<glyph unicode="&#x2000;" horiz-adv-x="821" />
<glyph unicode="&#x2001;" horiz-adv-x="1642" />
<glyph unicode="&#x2002;" horiz-adv-x="821" />
<glyph unicode="&#x2003;" horiz-adv-x="1642" />
<glyph unicode="&#x2004;" horiz-adv-x="546" />
<glyph unicode="&#x2005;" horiz-adv-x="409" />
<glyph unicode="&#x2006;" horiz-adv-x="272" />
<glyph unicode="&#x2007;" horiz-adv-x="272" />
<glyph unicode="&#x2008;" horiz-adv-x="204" />
<glyph unicode="&#x2009;" horiz-adv-x="327" />
<glyph unicode="&#x200a;" horiz-adv-x="90" />
<glyph unicode="&#x2010;" horiz-adv-x="552" d="M35 512l28 135h433l22 -22l-24 -113h-459z" />
<glyph unicode="&#x2011;" horiz-adv-x="552" d="M35 512l28 135h433l22 -22l-24 -113h-459z" />
<glyph unicode="&#x2012;" horiz-adv-x="552" d="M35 512l28 135h433l22 -22l-24 -113h-459z" />
<glyph unicode="&#x2013;" horiz-adv-x="1024" d="M53 512l29 135h864l25 -22l-27 -113h-891z" />
<glyph unicode="&#x2014;" horiz-adv-x="2048" d="M53 512l29 135h1888l25 -22l-27 -113h-1915z" />
<glyph unicode="&#x2018;" horiz-adv-x="491" d="M135 1319q0 70 77 192.5t105 122.5q4 0 16.5 -10t12.5 -20q0 -4 -39 -62.5t-39 -109.5q0 -43 44 -106.5t44 -84.5q0 -8 -36.5 -62.5t-59.5 -54.5q-31 0 -78 74t-47 121z" />
<glyph unicode="&#x2019;" horiz-adv-x="491" d="M135 1518q0 8 37 62t59 54q31 0 78 -73.5t47 -120.5q0 -70 -76.5 -193t-105.5 -123q-4 0 -16.5 10.5t-12.5 20.5q0 4 39 62.5t39 109.5q0 43 -44 107t-44 84z" />
<glyph unicode="&#x201c;" horiz-adv-x="811" d="M135 1319q0 70 77 192.5t105 122.5q4 0 16.5 -10t12.5 -20q0 -4 -39 -62.5t-39 -109.5q0 -43 44 -106.5t44 -84.5q0 -8 -36.5 -62.5t-59.5 -54.5q-31 0 -78 74t-47 121zM455 1319q0 70 76.5 192.5t105.5 122.5q4 0 16.5 -10t12.5 -20q0 -4 -39 -62.5t-39 -109.5 q0 -43 44 -106.5t44 -84.5q0 -8 -37 -62.5t-59 -54.5q-31 0 -78 74t-47 121z" />
<glyph unicode="&#x201d;" horiz-adv-x="811" d="M135 1518q0 8 37 62t59 54q31 0 78 -73.5t47 -120.5q0 -70 -76.5 -193t-105.5 -123q-4 0 -16.5 10.5t-12.5 20.5q0 4 39 62.5t39 109.5q0 43 -44 107t-44 84zM455 1518q0 8 36.5 62t59.5 54q31 0 78 -73.5t47 -120.5q0 -70 -77 -193t-105 -123q-4 0 -16.5 10.5 t-12.5 20.5q0 4 39 62.5t39 109.5q0 43 -44 107t-44 84z" />
<glyph unicode="&#x2022;" d="M223 674q0 31 111.5 145.5t140.5 116.5q33 0 153 -89t128 -128q0 -2 2 -28.5t2 -31.5q0 -23 -72 -103.5t-156 -149.5q-12 -8 -24 -9q-20 0 -90 47l-66 45l-59 48q-39 31 -54.5 57.5t-15.5 79.5z" />
<glyph unicode="&#x2026;" horiz-adv-x="1474" d="M129 152q0 25 36 78t70.5 53t80.5 -76t46 -105q0 -33 -50 -88t-85 -55q-29 0 -63.5 85t-34.5 108zM621 152q0 25 35.5 78t70.5 53t81 -76t46 -105q0 -33 -50 -88t-85 -55q-29 0 -63.5 85t-34.5 108zM1112 152q0 25 36 78t70.5 53t81 -76t46.5 -105q0 -33 -50.5 -88 t-85.5 -55q-29 0 -63.5 85t-34.5 108z" />
<glyph unicode="&#x202f;" horiz-adv-x="327" />
<glyph unicode="&#x205f;" horiz-adv-x="409" />
<glyph unicode="&#x20ac;" d="M10 584l39 96h113q16 98 33 137q33 76 157.5 165t233.5 89q227 0 327 -147l-47 -115l-32 -2q-14 16 -25.5 33.5t-32 35t-45 32t-64.5 22.5t-89 8q-129 0 -176.5 -58.5t-51.5 -199.5h463l-39 -96h-428v-49v-43h389l-39 -97h-346q8 -127 65.5 -197.5t196.5 -70.5 q178 0 326 145l45 -47l-71 -72q-34 -36 -74.5 -70t-79.5 -58.5t-87 -40t-100 -15.5q-201 0 -299 120t-118 306h-138l39 97h95v12q0 53 2 80h-142z" />
<glyph unicode="&#x2122;" horiz-adv-x="3196" d="M1249 1436v75h467l18 -55l459 -1139q250 543 465 1139l19 55h466v-75q-57 -2 -86.5 -5.5t-66.5 -10.5t-52.5 -21.5t-15.5 -36.5q0 -6 39 -1124l2 -58q6 -63 38 -80.5t128 -23.5v-76h-567v76q61 4 95 10t61.5 26.5t27.5 57.5q-6 395 -45 1053q-285 -625 -514 -1223h-80 l-524 1231q-31 -528 -31 -1061q0 -74 182 -90v-80h-483v74q92 10 127 54t43 142q29 444 39 770l10 324q0 39 -54 52.5t-167 19.5zM0 1489l23 22h1200l22 -22q-10 -174 -10 -404h-72q-53 193 -69 226q-8 25 -19 45q-14 14 -37 18q-106 20 -215 21q-35 0 -86 -11 q-16 -387 -16 -1214q0 -37 38 -58.5t76.5 -27.5t106.5 -12v-72h-655v72q49 4 78.5 8t66.5 14t55.5 28.5t18.5 47.5q6 0 6 778q0 313 -4 436q-51 10 -86 11q-109 0 -215 -21q-23 -4 -37 -18q-10 -20 -18 -45q-16 -33 -70 -226h-72q0 230 -10 404z" />
<glyph unicode="&#xe000;" horiz-adv-x="1075" d="M0 1075h1075v-1075h-1075v1075z" />
<glyph unicode="&#xfb01;" horiz-adv-x="1228" d="M61 918v69l183 31q0 618 522 618q137 0 176 -40t39 -144q0 -16 -1 -57t-1 -66l-88 -8q-45 242 -174 242q-104 0 -171 -105.5t-87 -232.5q-10 -63 -10 -193h247q66 0 141.5 11.5t129 22.5t59.5 11q35 0 35 -33q0 -25 -2 -134t-5 -310t-3 -446q0 -41 32.5 -60.5 t104.5 -23.5v-70h-475v70q104 8 130.5 27.5t26.5 80.5v426q0 223 -8 269.5t-51 46.5q-8 0 -26.5 -1t-98.5 -1h-237q-8 -430 -9 -719q0 -59 13.5 -79t63.5 -31t151 -26v-63h-574v70q74 10 92.5 13t43 19.5t26.5 37t2 69.5q0 143 -12 709h-185z" />
<glyph unicode="&#xfb02;" horiz-adv-x="1253" d="M61 918v69l183 31q0 248 118.5 432t342.5 184h335q33 0 33 -30q4 -166 4 -422q0 -264 -10 -550t-10 -437q0 -78 23.5 -95.5t127.5 -29.5v-70h-483v70q53 14 85 15t48 22.5t21.5 57.5t5.5 118q0 119 3 565t3 487q0 147 -37 187.5t-133 40.5q-74 0 -129 -49.5t-85 -128 t-44 -160.5t-14 -162v-31h274l-6 -114h-268q-6 -322 -7 -719q0 -59 13.5 -79t62.5 -31t150 -26v-63h-574v70q74 10 92.5 13t43 19.5t26.5 37t2 69.5q0 143 -12 709h-185z" />
<glyph unicode="&#xfb03;" horiz-adv-x="1882" d="M61 918v69l183 31q0 248 118.5 432t342.5 184q100 0 132.5 -54t32.5 -177q0 -12 -1 -37t-1 -39l-88 -2q-43 233 -129 234q-74 0 -138 -158t-64 -338v-31h448q8 604 522 604q137 0 176 -40t39 -144q0 -16 -1 -57t-1 -66l-88 -8q-45 242 -174 242q-104 0 -170.5 -105.5 t-87.5 -232.5q-10 -63 -10 -193h248q66 0 141.5 11.5t128.5 22.5t59 11q35 0 35 -33q0 -25 -3 -134t-5 -310t-2 -446q0 -41 32.5 -60.5t104.5 -23.5v-70h-475v70q104 8 131 27.5t27 80.5v426q0 223 -8.5 269.5t-51.5 46.5q-8 0 -26.5 -1t-98.5 -1h-237q-8 -430 -8 -719 q0 -59 13 -79t63.5 -31t150.5 -26v-63h-573v70q74 10 92 13t42.5 19.5t26.5 37t2 69.5q0 143 -12 709h-450q-8 -430 -9 -719q0 -59 13.5 -79t63.5 -31t151 -26v-63h-574v70q74 10 92.5 13t43 19.5t26.5 37t2 69.5q0 143 -12 709h-185z" />
<glyph unicode="&#xfb04;" horiz-adv-x="1906" d="M61 918v69l183 31q0 248 118.5 432t342.5 184q100 0 132.5 -54t32.5 -177q0 -12 -1 -37t-1 -39l-88 -2q-43 233 -129 234q-74 0 -138 -158t-64 -338v-31h448q2 156 49 288t154.5 223t257.5 91h336q33 0 32 -30q4 -166 5 -422q0 -264 -10.5 -550t-10.5 -437 q0 -78 23.5 -95.5t128.5 -29.5v-70h-484v70q53 14 85 15t48.5 22.5t21.5 57.5t5 118q0 119 3 565t3 487q0 147 -37 187.5t-133 40.5q-74 0 -129 -49.5t-85 -128t-44 -160.5t-14 -162v-31h274l-6 -114h-268q-6 -324 -6 -719q0 -59 13 -79t62.5 -31t149.5 -26v-63h-573v70 q74 10 92 13t42.5 19.5t26.5 37t2 69.5q0 143 -12 709h-450q-8 -430 -9 -719q0 -59 13.5 -79t63.5 -31t151 -26v-63h-574v70q74 10 92.5 13t43 19.5t26.5 37t2 69.5q0 143 -12 709h-185z" />
</font>
</defs>
</svg>
